<?xml version="1.0" standalone="no"?>
<!DOCTYPE svg PUBLIC "-//W3C//DTD SVG 20010904//EN"
 "http://www.w3.org/TR/2001/REC-SVG-20010904/DTD/svg10.dtd">
<svg version="1.0" xmlns="http://www.w3.org/2000/svg"
 width="478.000000pt" height="478.000000pt" viewBox="0 0 478.000000 478.000000"
 preserveAspectRatio="xMidYMid meet">

<g transform="translate(0.000000,478.000000) scale(0.100000,-0.100000)"
fill="#000000" stroke="none">
<path d="M2103 4764 c-978 -118 -1788 -830 -2029 -1780 -56 -224 -69 -331 -69
-594 0 -264 13 -372 70 -596 120 -469 386 -898 750 -1212 341 -293 762 -488
1205 -557 144 -22 439 -31 581 -16 570 58 1074 295 1469 691 396 395 633 899
691 1469 15 142 6 437 -16 581 -131 834 -684 1536 -1462 1854 -363 149 -799
208 -1190 160z m477 -34 c455 -37 896 -210 1258 -493 456 -356 770 -883 867
-1452 27 -158 33 -256 30 -440 -7 -371 -83 -680 -250 -1010 -231 -459 -581
-809 -1040 -1040 -330 -167 -639 -243 -1010 -250 -397 -7 -724 66 -1080 240
-696 340 -1174 997 -1289 1771 -23 151 -30 362 -17 518 107 1297 1238 2261
2531 2156z"/>
<path d="M2170 4644 c-437 -51 -820 -202 -1153 -457 -106 -80 -292 -260 -374
-362 -574 -711 -671 -1682 -248 -2482 221 -418 557 -745 990 -964 305 -154
608 -228 960 -234 205 -4 305 4 490 41 610 121 1147 496 1478 1032 457 739
442 1695 -40 2420 -309 467 -783 806 -1317 943 -190 49 -283 60 -521 64 -126
2 -246 1 -265 -1z m580 -63 c674 -119 1224 -502 1562 -1089 194 -335 289 -700
289 -1103 -1 -1375 -1250 -2414 -2609 -2169 -485 87 -946 349 -1263 716 -97
113 -168 208 -229 309 -55 90 -160 308 -195 405 -45 126 -92 328 -110 470 -24
182 -17 482 15 659 106 598 458 1134 964 1466 297 195 632 315 991 355 133 15
454 4 585 -19z"/>
<path d="M1340 3711 c0 -15 10 -19 52 -23 66 -7 84 -28 93 -111 4 -34 5 -309
3 -612 -5 -575 -6 -595 -50 -680 -31 -60 -104 -105 -168 -105 -24 0 -30 -4
-30 -21 0 -21 3 -21 58 -16 87 10 147 34 203 85 88 79 120 148 139 294 6 48
10 286 11 563 0 264 4 500 8 523 11 58 29 74 90 80 41 4 51 8 51 23 0 18 -12
19 -230 19 -218 0 -230 -1 -230 -19z"/>
<path d="M1850 3711 c0 -13 9 -21 29 -26 63 -14 53 13 389 -987 59 -176 81
-228 94 -228 10 0 21 13 27 33 5 17 67 214 137 437 69 223 129 408 133 412 3
4 74 -191 156 -434 82 -242 156 -443 163 -445 22 -9 -6 -92 269 787 52 168
104 322 115 343 11 23 37 49 63 65 25 15 45 35 45 45 0 16 -13 17 -167 15
-141 -3 -168 -5 -168 -18 0 -10 15 -17 46 -21 26 -4 56 -12 67 -18 27 -14 45
-71 37 -118 -9 -50 -238 -773 -245 -773 -3 0 -24 57 -47 128 -229 703 -236
726 -214 761 5 7 32 16 60 19 41 4 51 8 51 23 0 18 -11 19 -205 19 -173 0
-205 -2 -205 -15 0 -8 16 -22 35 -31 41 -19 57 -45 96 -162 l28 -83 -106 -335
c-59 -184 -110 -331 -113 -327 -15 19 -271 817 -272 849 -2 41 20 64 59 64 16
0 23 6 23 20 0 19 -7 20 -190 20 -181 0 -190 -1 -190 -19z"/>
<path d="M1380 1650 c0 -5 8 -10 19 -10 39 0 41 -18 39 -276 l-3 -249 -28 0
c-15 1 -26 -4 -24 -9 5 -15 197 -99 205 -91 4 4 1 10 -6 12 -7 3 -24 15 -38
27 -23 20 -24 27 -26 143 -1 67 1 125 4 128 3 4 25 1 48 -5 33 -9 44 -18 56
-45 8 -19 14 -48 14 -65 0 -16 5 -30 10 -30 6 0 10 46 10 119 0 66 3 126 6
135 4 11 1 16 -10 16 -11 0 -16 -9 -16 -33 0 -62 -35 -87 -97 -71 -22 6 -23
10 -23 134 0 104 3 132 16 144 18 19 81 21 137 5 44 -12 60 -41 72 -126 11
-83 25 -62 25 36 0 49 3 96 6 105 5 14 -16 16 -195 16 -127 0 -201 -4 -201
-10z"/>
<path d="M1976 1573 c-15 -49 -61 -193 -102 -322 -64 -197 -81 -239 -106 -263
-17 -16 -29 -30 -27 -32 7 -7 153 -46 157 -42 2 2 -4 10 -13 17 -47 39 -55 51
-55 82 0 33 36 155 50 171 8 8 176 -7 186 -17 3 -3 18 -54 33 -114 30 -118 28
-153 -10 -153 -23 0 -22 -22 2 -25 65 -10 169 -15 169 -10 0 4 -10 19 -23 34
-17 20 -47 120 -115 377 -112 420 -102 384 -111 384 -5 0 -21 -39 -35 -87z
m47 -219 c21 -81 36 -149 33 -152 -6 -6 -155 13 -162 21 -6 6 78 277 86 277 3
0 23 -66 43 -146z"/>
<path d="M2277 1644 c3 -7 14 -14 24 -14 12 0 23 -10 29 -26 13 -33 13 -654 0
-688 -5 -14 -20 -28 -35 -32 -28 -7 -34 -24 -7 -24 9 0 56 -3 105 -7 76 -5 87
-4 87 11 0 9 -8 16 -19 16 -36 0 -42 23 -43 186 l-2 158 24 6 c43 10 90 -1
106 -25 8 -13 26 -81 39 -153 13 -71 30 -143 39 -161 14 -27 22 -31 55 -31 31
0 44 6 65 31 37 44 35 71 -2 35 -40 -37 -47 -25 -76 121 -26 132 -42 165 -87
183 l-29 12 39 26 c104 67 128 240 45 331 -45 50 -86 61 -237 60 -106 0 -125
-2 -120 -15z m273 -29 c7 -4 21 -26 31 -49 23 -51 26 -180 5 -231 -19 -44 -69
-75 -123 -75 l-41 0 -4 143 c-4 176 0 208 30 223 23 11 75 6 102 -11z"/>
<path d="M2790 1650 c0 -6 11 -15 24 -20 13 -5 27 -13 30 -19 3 -5 9 -151 13
-325 5 -284 4 -318 -11 -341 -9 -14 -23 -25 -31 -25 -8 0 -15 -7 -15 -16 0
-10 6 -14 14 -11 8 3 41 11 75 18 41 8 61 16 61 26 0 8 -4 11 -10 8 -19 -11
-49 15 -54 48 -3 17 -7 155 -9 305 l-5 274 102 -303 c55 -167 106 -304 112
-306 6 -2 16 20 22 49 7 29 45 168 85 308 l72 255 5 -90 c3 -49 5 -164 5 -254
0 -148 -2 -165 -18 -175 -39 -23 -52 -35 -46 -40 8 -8 199 81 199 92 0 4 -12
8 -27 7 l-28 0 -3 249 c-2 258 0 276 39 276 11 0 19 5 19 10 0 6 -30 10 -70
10 l-69 0 -30 -97 c-17 -54 -52 -176 -78 -270 -26 -95 -50 -173 -53 -173 -4 0
-46 122 -94 270 l-88 270 -69 0 c-40 0 -69 -4 -69 -10z"/>
</g>
</svg>
