<?xml version="1.0" encoding="utf-8"?>
<!-- Generator: Adobe Illustrator 27.8.1, SVG Export Plug-In . SVG Version: 6.00 Build 0)  -->
<svg version="1.1" id="Layer_1" xmlns="http://www.w3.org/2000/svg" xmlns:xlink="http://www.w3.org/1999/xlink" x="0px" y="0px"
	 viewBox="0 0 478 478" style="enable-background:new 0 0 478 478;" xml:space="preserve">
<style type="text/css">
	.st0{fill:#F8FF91;stroke:#E7FF96;stroke-miterlimit:10;}
</style>
<g transform="translate(0.000000,478.000000) scale(0.100000,-0.100000)">
	<path class="st0" d="M2103,4764C1125,4646,315,3934,74,2984c-56-224-69-331-69-594c0-264,13-372,70-596c120-469,386-898,750-1212
		c341-293,762-488,1205-557c144-22,439-31,581-16c570,58,1074,295,1469,691c396,395,633,899,691,1469c15,142,6,437-16,581
		c-131,834-684,1536-1462,1854C2930,4753,2494,4812,2103,4764z M2580,4730c455-37,896-210,1258-493c456-356,770-883,867-1452
		c27-158,33-256,30-440c-7-371-83-680-250-1010c-231-459-581-809-1040-1040C3115,128,2806,52,2435,45c-397-7-724,66-1080,240
		C659,625,181,1282,66,2056c-23,151-30,362-17,518C156,3871,1287,4835,2580,4730z"/>
	<path class="st0" d="M2170,4644c-437-51-820-202-1153-457c-106-80-292-260-374-362C69,3114-28,2143,395,1343
		c221-418,557-745,990-964c305-154,608-228,960-234c205-4,305,4,490,41c610,121,1147,496,1478,1032c457,739,442,1695-40,2420
		c-309,467-783,806-1317,943c-190,49-283,60-521,64C2309,4647,2189,4646,2170,4644z M2750,4581c674-119,1224-502,1562-1089
		c194-335,289-700,289-1103C4600,1014,3351-25,1992,220c-485,87-946,349-1263,716c-97,113-168,208-229,309c-55,90-160,308-195,405
		c-45,126-92,328-110,470c-24,182-17,482,15,659c106,598,458,1134,964,1466c297,195,632,315,991,355C2298,4615,2619,4604,2750,4581z
		"/>
	<path class="st0" d="M1340,3711c0-15,10-19,52-23c66-7,84-28,93-111c4-34,5-309,3-612c-5-575-6-595-50-680c-31-60-104-105-168-105
		c-24,0-30-4-30-21c0-21,3-21,58-16c87,10,147,34,203,85c88,79,120,148,139,294c6,48,10,286,11,563c0,264,4,500,8,523
		c11,58,29,74,90,80c41,4,51,8,51,23c0,18-12,19-230,19S1340,3729,1340,3711z"/>
	<path class="st0" d="M1850,3711c0-13,9-21,29-26c63-14,53,13,389-987c59-176,81-228,94-228c10,0,21,13,27,33c5,17,67,214,137,437
		c69,223,129,408,133,412c3,4,74-191,156-434c82-242,156-443,163-445c22-9-6-92,269,787c52,168,104,322,115,343c11,23,37,49,63,65
		c25,15,45,35,45,45c0,16-13,17-167,15c-141-3-168-5-168-18c0-10,15-17,46-21c26-4,56-12,67-18c27-14,45-71,37-118
		c-9-50-238-773-245-773c-3,0-24,57-47,128c-229,703-236,726-214,761c5,7,32,16,60,19c41,4,51,8,51,23c0,18-11,19-205,19
		c-173,0-205-2-205-15c0-8,16-22,35-31c41-19,57-45,96-162l28-83l-106-335c-59-184-110-331-113-327c-15,19-271,817-272,849
		c-2,41,20,64,59,64c16,0,23,6,23,20c0,19-7,20-190,20C1859,3730,1850,3729,1850,3711z"/>
	<path class="st0" d="M1380,1650c0-5,8-10,19-10c39,0,41-18,39-276l-3-249h-28c-15,1-26-4-24-9c5-15,197-99,205-91c4,4,1,10-6,12
		c-7,3-24,15-38,27c-23,20-24,27-26,143c-1,67,1,125,4,128c3,4,25,1,48-5c33-9,44-18,56-45c8-19,14-48,14-65c0-16,5-30,10-30
		c6,0,10,46,10,119c0,66,3,126,6,135c4,11,1,16-10,16s-16-9-16-33c0-62-35-87-97-71c-22,6-23,10-23,134c0,104,3,132,16,144
		c18,19,81,21,137,5c44-12,60-41,72-126c11-83,25-62,25,36c0,49,3,96,6,105c5,14-16,16-195,16C1454,1660,1380,1656,1380,1650z"/>
	<path class="st0" d="M1976,1573c-15-49-61-193-102-322c-64-197-81-239-106-263c-17-16-29-30-27-32c7-7,153-46,157-42
		c2,2-4,10-13,17c-47,39-55,51-55,82c0,33,36,155,50,171c8,8,176-7,186-17c3-3,18-54,33-114c30-118,28-153-10-153c-23,0-22-22,2-25
		c65-10,169-15,169-10c0,4-10,19-23,34c-17,20-47,120-115,377c-112,420-102,384-111,384C2006,1660,1990,1621,1976,1573z M2023,1354
		c21-81,36-149,33-152c-6-6-155,13-162,21c-6,6,78,277,86,277C1983,1500,2003,1434,2023,1354z"/>
	<path class="st0" d="M2277,1644c3-7,14-14,24-14c12,0,23-10,29-26c13-33,13-654,0-688c-5-14-20-28-35-32c-28-7-34-24-7-24
		c9,0,56-3,105-7c76-5,87-4,87,11c0,9-8,16-19,16c-36,0-42,23-43,186l-2,158l24,6c43,10,90-1,106-25c8-13,26-81,39-153
		c13-71,30-143,39-161c14-27,22-31,55-31c31,0,44,6,65,31c37,44,35,71-2,35c-40-37-47-25-76,121c-26,132-42,165-87,183l-29,12l39,26
		c104,67,128,240,45,331c-45,50-86,61-237,60C2291,1659,2272,1657,2277,1644z M2550,1615c7-4,21-26,31-49c23-51,26-180,5-231
		c-19-44-69-75-123-75h-41l-4,143c-4,176,0,208,30,223C2471,1637,2523,1632,2550,1615z"/>
	<path class="st0" d="M2790,1650c0-6,11-15,24-20s27-13,30-19c3-5,9-151,13-325c5-284,4-318-11-341c-9-14-23-25-31-25s-15-7-15-16
		c0-10,6-14,14-11s41,11,75,18c41,8,61,16,61,26c0,8-4,11-10,8c-19-11-49,15-54,48c-3,17-7,155-9,305l-5,274l102-303
		c55-167,106-304,112-306s16,20,22,49c7,29,45,168,85,308l72,255l5-90c3-49,5-164,5-254c0-148-2-165-18-175c-39-23-52-35-46-40
		c8-8,199,81,199,92c0,4-12,8-27,7h-28l-3,249c-2,258,0,276,39,276c11,0,19,5,19,10c0,6-30,10-70,10h-69l-30-97
		c-17-54-52-176-78-270c-26-95-50-173-53-173c-4,0-46,122-94,270l-88,270h-69C2819,1660,2790,1656,2790,1650z"/>
</g>
</svg>
